<svg width="1440" height="1024" viewBox="0 0 1440 1024" fill="none" xmlns="http://www.w3.org/2000/svg">
<path d="M1168.5 136C1142.83 136 1121.83 127.333 1105.5 110C1089.5 92.3333 1081.5 68.8333 1081.5 39.5C1081.5 10.1666 1089.5 -13.1667 1105.5 -30.5C1121.83 -48.1667 1142.83 -57 1168.5 -57C1194.17 -57 1215 -48.1667 1231 -30.5C1247 -13.1667 1255 10.1666 1255 39.5C1255 68.8333 1247 92.3333 1231 110C1215 127.333 1194.17 136 1168.5 136ZM1377 -53H1436.5L1197.5 297H1138L1377 -53ZM1168.5 95C1179.83 95 1188.67 90.3333 1195 81C1201.67 71.6667 1205 57.8333 1205 39.5C1205 21.1666 1201.67 7.33331 1195 -2.00002C1188.67 -11.3334 1179.83 -16 1168.5 -16C1157.5 -16 1148.67 -11.1667 1142 -1.5C1135.33 7.83333 1132 21.5 1132 39.5C1132 57.5 1135.33 71.3333 1142 81C1148.67 90.3333 1157.5 95 1168.5 95ZM1406 301C1389.33 301 1374.33 297.167 1361 289.5C1348 281.5 1337.83 270.167 1330.5 255.5C1323.17 240.833 1319.5 223.833 1319.5 204.5C1319.5 185.167 1323.17 168.167 1330.5 153.5C1337.83 138.833 1348 127.667 1361 120C1374.33 112 1389.33 108 1406 108C1431.67 108 1452.5 116.833 1468.5 134.5C1484.83 151.833 1493 175.167 1493 204.5C1493 233.833 1484.83 257.333 1468.5 275C1452.5 292.333 1431.67 301 1406 301ZM1406 260C1417.33 260 1426.17 255.333 1432.5 246C1439.17 236.333 1442.5 222.5 1442.5 204.5C1442.5 186.5 1439.17 172.833 1432.5 163.5C1426.17 153.833 1417.33 149 1406 149C1395 149 1386.17 153.667 1379.5 163C1372.83 172.333 1369.5 186.167 1369.5 204.5C1369.5 222.833 1372.83 236.667 1379.5 246C1386.17 255.333 1395 260 1406 260Z" fill="#0065FF" fill-opacity="0.1"/>
<path d="M1220 781.562C1220 803.717 1202.09 821.625 1179.94 821.625H619.062C596.908 821.625 579 803.717 579 781.562V701.438C579 679.323 596.908 661.375 619.062 661.375H1179.94C1202.09 661.375 1220 679.323 1220 701.438V781.562Z" fill="#0065FF" fill-opacity="0.3"/>
<path d="M859.438 581.25C837.283 581.25 819.375 563.342 819.375 541.188V461.062C819.375 438.908 837.283 421 859.438 421H939.563C961.717 421 979.625 438.908 979.625 461.062V541.188C979.625 563.342 961.717 581.25 939.563 581.25H859.438Z" fill="#0065FF" fill-opacity="0.3"/>
<path d="M859.438 1062C837.283 1062 819.375 1044.09 819.375 1021.94V941.812C819.375 919.658 837.283 901.75 859.438 901.75H939.563C961.717 901.75 979.625 919.658 979.625 941.812V1021.94C979.625 1044.09 961.717 1062 939.563 1062H859.438Z" fill="#0065FF" fill-opacity="0.3"/>
<path d="M432 921.143C432 922.405 430.978 923.429 429.714 923.429H402.286C401.022 923.429 400 922.405 400 921.143V916.571C400 915.31 401.022 914.286 402.286 914.286H429.714C430.978 914.286 432 915.31 432 916.571V921.143Z" fill="#0065FF" fill-opacity="0.9"/>
<path d="M432 939.429C432 940.693 430.978 941.714 429.714 941.714H402.286C401.022 941.714 400 940.693 400 939.429V934.857C400 933.593 401.022 932.572 402.286 932.572H429.714C430.978 932.572 432 933.593 432 934.857V939.429Z" fill="#0065FF" fill-opacity="0.9"/>
<path d="M238.888 308.985L152.637 222.76L238.888 136.534C245.013 130.384 245.013 120.403 238.888 114.278L209.197 84.6125C203.047 78.4625 193.066 78.4625 186.941 84.6125L100.69 170.838L14.4902 84.6125C8.34022 78.4625 -1.61567 78.4625 -7.76563 84.6125L-37.4064 114.278C-43.5312 120.428 -43.5312 130.384 -37.4064 136.534L48.8191 222.76L-37.4064 308.985C-43.5312 315.135 -43.5312 325.091 -37.4064 331.241L-7.74042 360.932C-1.59046 367.057 8.36542 367.057 14.5154 360.932L100.716 274.682L186.966 360.932C193.091 367.057 203.072 367.057 209.222 360.932L238.913 331.241C245.038 325.091 245.038 315.135 238.888 308.985Z" fill="#0065FF" fill-opacity="0.35"/>
<path fill-rule="evenodd" clip-rule="evenodd" d="M389 700.5C389 702.989 386.988 705 384.5 705H375.5C373.016 705 371 702.989 371 700.5L371 678H348.5C346.012 678 344 675.984 344 673.5V664.5C344 662.011 346.012 660 348.5 660H371L371 637.5C371 635.012 373.016 633 375.5 633H384.5C386.988 633 389 635.012 389 637.5V660H411.5C413.989 660 416 662.011 416 664.5V673.5C416 675.984 413.989 678 411.5 678H389V700.5Z" fill="#0065FF" fill-opacity="0.45"/>
<path d="M92.784 894.504C89.664 894.504 86.616 894.096 83.64 893.28C80.664 892.464 78.288 891.432 76.512 890.184L79.968 883.344C81.696 884.496 83.76 885.432 86.16 886.152C88.608 886.824 91.008 887.16 93.36 887.16C98.736 887.16 101.424 885.744 101.424 882.912C101.424 881.568 100.728 880.632 99.336 880.104C97.992 879.576 95.808 879.072 92.784 878.592C89.616 878.112 87.024 877.56 85.008 876.936C83.04 876.312 81.312 875.232 79.824 873.696C78.384 872.112 77.664 869.928 77.664 867.144C77.664 863.496 79.176 860.592 82.2 858.432C85.272 856.224 89.4 855.12 94.584 855.12C97.224 855.12 99.864 855.432 102.504 856.056C105.144 856.632 107.304 857.424 108.984 858.432L105.528 865.272C102.264 863.352 98.592 862.392 94.512 862.392C91.872 862.392 89.856 862.8 88.464 863.616C87.12 864.384 86.448 865.416 86.448 866.712C86.448 868.152 87.168 869.184 88.608 869.808C90.096 870.384 92.376 870.936 95.448 871.464C98.52 871.944 101.04 872.496 103.008 873.12C104.976 873.744 106.656 874.8 108.048 876.288C109.488 877.776 110.208 879.888 110.208 882.624C110.208 886.224 108.648 889.104 105.528 891.264C102.408 893.424 98.16 894.504 92.784 894.504ZM116.879 855.552H125.879V894H116.879V855.552ZM121.415 849.216C119.783 849.216 118.415 848.712 117.311 847.704C116.207 846.648 115.655 845.352 115.655 843.816C115.655 842.28 116.207 841.008 117.311 840C118.415 838.944 119.783 838.416 121.415 838.416C123.047 838.416 124.415 838.92 125.519 839.928C126.623 840.888 127.175 842.112 127.175 843.6C127.175 845.184 126.623 846.528 125.519 847.632C124.463 848.688 123.095 849.216 121.415 849.216ZM158.427 855.12C163.275 855.12 167.163 856.536 170.091 859.368C173.019 862.2 174.483 866.4 174.483 871.968V894H165.483V873.12C165.483 869.76 164.691 867.24 163.107 865.56C161.523 863.832 159.267 862.968 156.339 862.968C153.027 862.968 150.411 863.976 148.491 865.992C146.571 867.96 145.611 870.816 145.611 874.56V894H136.611V855.552H145.179V860.52C146.667 858.744 148.539 857.4 150.795 856.488C153.051 855.576 155.595 855.12 158.427 855.12Z" fill="#0065FF" fill-opacity="0.25"/>
<g clip-path="url(#clip0)">
<path d="M667.215 164.997C668.35 167.722 671.013 169.497 673.963 169.497H766.534C770.571 169.497 773.843 166.226 773.843 162.187V140.264C773.843 136.227 770.572 132.955 766.534 132.955C762.496 132.955 759.224 136.226 759.224 140.264V154.879H691.525L725 121.182C727.68 118.483 727.844 114.178 725.373 111.286L689.81 69.617H759.226V74.489C759.226 78.526 762.497 81.797 766.536 81.797C770.575 81.797 773.845 78.526 773.845 74.489V62.309C773.845 58.272 770.574 55 766.536 55H673.963C671.112 55 668.521 56.659 667.327 59.249C666.133 61.839 666.555 64.886 668.404 67.054L709.888 115.658L668.779 157.038C666.698 159.132 666.082 162.271 667.215 164.997Z" fill="#0065FF" fill-opacity="0.3"/>
</g>
<defs>
<clipPath id="clip0">
<rect width="114.498" height="114.497" fill="white" transform="translate(663 55)"/>
</clipPath>
</defs>
</svg>
